{
  "accessors": [
    {
      "bufferView": 2,
      "componentType": 5126,
      "count": 5980,
      "max": [
        51783.5703125,
        8494.1572265625,
        18067.025390625
      ],
      "min": [
        -2668.740234375,
        -6197.0224609375,
        -6073.25048828125
      ],
      "type": "VEC3"
    },
    {
      "bufferView": 2,
      "byteOffset": 71760,
      "componentType": 5126,
      "count": 5980,
      "max": [
        0.9999489784240723,
        0.9998896718025208,
        1.0
      ],
      "min": [
        -0.9993532299995422,
        -0.9978144764900208,
        -0.9998802542686462
      ],
      "type": "VEC3"
    },
    {
      "bufferView": 3,
      "componentType": 5126,
      "count": 5980,
      "max": [
        1.0,
        0.9997065663337708,
        0.9999845027923584,
        1.0
      ],
      "min": [
        -0.9991738200187683,
        -0.999962568283081,
        -0.9998332858085632,
        -1.0
      ],
      "type": "VEC4"
    },
    {
      "bufferView": 1,
      "componentType": 5126,
      "count": 5980,
      "max": [
        0.7295870184898376,
        0.9778239727020264
      ],
      "min": [
        0.020361000671982765,
        0.01963300071656704
      ],
      "type": "VEC2"
    },
    {
      "bufferView": 0,
      "componentType": 5125,
      "count": 27495,
      "type": "SCALAR"
    },
    {
      "bufferView": 2,
      "byteOffset": 143520,
      "componentType": 5126,
      "count": 1012,
      "max": [
        76.24172973632813,
        132.17971801757813,
        678.0482177734375
      ],
      "min": [
        -72.18829345703125,
        -87.66644287109375,
        -26.6717529296875
      ],
      "type": "VEC3"
    },
    {
      "bufferView": 2,
      "byteOffset": 155664,
      "componentType": 5126,
      "count": 1012,
      "max": [
        0.9979041218757629,
        0.9942808747291565,
        0.9889733791351318
      ],
      "min": [
        -0.6700234413146973,
        -0.8911457061767578,
        -0.9995913505554199
      ],
      "type": "VEC3"
    },
    {
      "bufferView": 3,
      "byteOffset": 95680,
      "componentType": 5126,
      "count": 1012,
      "max": [
        0.9239190220832825,
        0.020428361371159554,
        0.9961730241775513,
        -1.0
      ],
      "min": [
        -0.6314370036125183,
        -0.9999766945838928,
        -0.6418911814689636,
        -1.0
      ],
      "type": "VEC4"
    },
    {
      "bufferView": 1,
      "byteOffset": 47840,
      "componentType": 5126,
      "count": 1012,
      "max": [
        0.9889730215072632,
        0.9889730215072632
      ],
      "min": [
        0.011026999913156033,
        0.011026999913156033
      ],
      "type": "VEC2"
    },
    {
      "bufferView": 1,
      "byteOffset": 55936,
      "componentType": 5126,
      "count": 1012,
      "max": [
        0.9889730215072632,
        0.9889730215072632
      ],
      "min": [
        0.011026999913156033,
        0.011026999913156033
      ],
      "type": "VEC2"
    },
    {
      "bufferView": 1,
      "byteOffset": 64032,
      "componentType": 5126,
      "count": 1012,
      "max": [
        0.9889730215072632,
        0.9889730215072632
      ],
      "min": [
        0.011026999913156033,
        0.011026999913156033
      ],
      "type": "VEC2"
    },
    {
      "bufferView": 0,
      "byteOffset": 109980,
      "componentType": 5125,
      "count": 1518,
      "type": "SCALAR"
    },
    {
      "bufferView": 2,
      "byteOffset": 167808,
      "componentType": 5126,
      "count": 4308,
      "max": [
        46.34839630126953,
        106.3077392578125,
        652.4813842773438
      ],
      "min": [
        -46.846588134765625,
        -62.88511657714844,
        -0.07022099941968918
      ],
      "type": "VEC3"
    },
    {
      "bufferView": 2,
      "byteOffset": 219504,
      "componentType": 5126,
      "count": 4308,
      "max": [
        0.9981757402420044,
        0.9883506298065186,
        0.9987618923187256
      ],
      "min": [
        -0.9999771118164063,
        -0.9890893697738647,
        -0.9999709725379944
      ],
      "type": "VEC3"
    },
    {
      "bufferView": 3,
      "byteOffset": 111872,
      "componentType": 5126,
      "count": 4308,
      "max": [
        0.9990078806877136,
        0.9998916387557983,
        0.9994578957557678,
        1.0
      ],
      "min": [
        -0.9986498355865479,
        -0.999955415725708,
        -0.9992787837982178,
        -1.0
      ],
      "type": "VEC4"
    },
    {
      "bufferView": 1,
      "byteOffset": 72128,
      "componentType": 5126,
      "count": 4308,
      "max": [
        0.596697986125946,
        0.9944959878921509
      ],
      "min": [
        0.0033019999973475933,
        0.005504000000655651
      ],
      "type": "VEC2"
    },
    {
      "bufferView": 0,
      "byteOffset": 116052,
      "componentType": 5125,
      "count": 25740,
      "type": "SCALAR"
    },
    {
      "bufferView": 2,
      "byteOffset": 271200,
      "componentType": 5126,
      "count": 38719,
      "max": [
        296.4931640625,
        657.8397216796875,
        203.12937927246094
      ],
      "min": [
        -337.01654052734375,
        -0.6772159934043884,
        -193.4734344482422
      ],
      "type": "VEC3"
    },
    {
      "bufferView": 2,
      "byteOffset": 735828,
      "componentType": 5126,
      "count": 38719,
      "max": [
        0.9999589920043945,
        0.9999892115592957,
        0.9999763369560242
      ],
      "min": [
        -0.9999908804893494,
        -0.9999857544898987,
        -0.9999686479568481
      ],
      "type": "VEC3"
    },
    {
      "bufferView": 3,
      "byteOffset": 180800,
      "componentType": 5126,
      "count": 38719,
      "max": [
        0.999999463558197,
        0.9999393820762634,
        0.9999050498008728,
        1.0
      ],
      "min": [
        -0.999999463558197,
        -0.9999774098396301,
        -0.9999465346336365,
        -1.0
      ],
      "type": "VEC4"
    },
    {
      "bufferView": 1,
      "byteOffset": 106592,
      "componentType": 5126,
      "count": 38719,
      "max": [
        0.9879180192947388,
        0.9994999766349792
      ],
      "min": [
        0.0005000000237487257,
        0.0005000000237487257
      ],
      "type": "VEC2"
    },
    {
      "bufferView": 0,
      "byteOffset": 219012,
      "componentType": 5125,
      "count": 205926,
      "type": "SCALAR"
    },
    {
      "bufferView": 2,
      "byteOffset": 1200456,
      "componentType": 5126,
      "count": 10655,
      "max": [
        169.32386779785156,
        235.43057250976563,
        170.83694458007813
      ],
      "min": [
        -170.61598205566406,
        8.223236083984375,
        -173.49810791015625
      ],
      "type": "VEC3"
    },
    {
      "bufferView": 2,
      "byteOffset": 1328316,
      "componentType": 5126,
      "count": 10655,
      "max": [
        0.9999954700469971,
        1.0,
        0.9999876618385315
      ],
      "min": [
        -0.9999497532844543,
        -1.0,
        -0.999987781047821
      ],
      "type": "VEC3"
    },
    {
      "bufferView": 3,
      "byteOffset": 800304,
      "componentType": 5126,
      "count": 10655,
      "max": [
        1.0,
        0.9999972581863403,
        0.9999129772186279,
        1.0
      ],
      "min": [
        -0.9999451041221619,
        -0.999999463558197,
        -0.9999622702598572,
        -1.0
      ],
      "type": "VEC4"
    },
    {
      "bufferView": 1,
      "byteOffset": 416344,
      "componentType": 5126,
      "count": 10655,
      "max": [
        0.9923629760742188,
        0.9885749816894531
      ],
      "min": [
        0.009878999553620815,
        0.010881000198423862
      ],
      "type": "VEC2"
    },
    {
      "bufferView": 0,
      "byteOffset": 1042716,
      "componentType": 5125,
      "count": 52377,
      "type": "SCALAR"
    },
    {
      "bufferView": 2,
      "byteOffset": 1456176,
      "componentType": 5126,
      "count": 6890,
      "max": [
        101.69702911376953,
        310.39752197265625,
        12.862516403198242
      ],
      "min": [
        -65.70183563232422,
        217.07861328125,
        -39.93962097167969
      ],
      "type": "VEC3"
    },
    {
      "bufferView": 2,
      "byteOffset": 1538856,
      "componentType": 5126,
      "count": 6890,
      "max": [
        1.0,
        1.0,
        1.0
      ],
      "min": [
        -1.0,
        -1.0,
        -1.0
      ],
      "type": "VEC3"
    },
    {
      "bufferView": 3,
      "byteOffset": 970784,
      "componentType": 5126,
      "count": 6890,
      "max": [
        0.9999549984931946,
        0.9999034404754639,
        0.9999998807907104,
        1.0
      ],
      "min": [
        -0.9999549984931946,
        -0.999778151512146,
        -0.9999994039535522,
        1.0
      ],
      "type": "VEC4"
    },
    {
      "bufferView": 1,
      "byteOffset": 501584,
      "componentType": 5126,
      "count": 6890,
      "max": [
        0.3808780014514923,
        0.9994999766349792
      ],
      "min": [
        0.0005000000237487257,
        0.0005000000237487257
      ],
      "type": "VEC2"
    },
    {
      "bufferView": 0,
      "byteOffset": 1252224,
      "componentType": 5125,
      "count": 26784,
      "type": "SCALAR"
    }
  ],
  "asset": {
    "extras": {
      "author": "JonParrish (https://sketchfab.com/JonParrish)",
      "license": "CC-BY-4.0 (http://creativecommons.org/licenses/by/4.0/)",
      "source": "https://sketchfab.com/3d-models/wishing-well-free-download-52cfa66a533b4f1da2fe83a7adaca3d7",
      "title": "Wishing well | Free Download"
    },
    "generator": "Sketchfab-12.65.0",
    "version": "2.0"
  },
  "bufferViews": [
    {
      "buffer": 0,
      "byteLength": 1359360,
      "name": "floatBufferViews",
      "target": 34963
    },
    {
      "buffer": 0,
      "byteLength": 556704,
      "byteOffset": 1359360,
      "byteStride": 8,
      "name": "floatBufferViews",
      "target": 34962
    },
    {
      "buffer": 0,
      "byteLength": 1621536,
      "byteOffset": 1916064,
      "byteStride": 12,
      "name": "floatBufferViews",
      "target": 34962
    },
    {
      "buffer": 0,
      "byteLength": 1081024,
      "byteOffset": 3537600,
      "byteStride": 16,
      "name": "floatBufferViews",
      "target": 34962
    }
  ],
  "buffers": [
    {
      "byteLength": 4618624,
      "uri": "scene.bin"
    }
  ],
  "images": [
    {
      "uri": "textures/WellTop_baseColor.jpeg"
    },
    {
      "uri": "textures/WellTop_metallicRoughness.png"
    },
    {
      "uri": "textures/WellTop_normal.png"
    },
    {
      "uri": "textures/WellBottom_baseColor.jpeg"
    },
    {
      "uri": "textures/WellBottom_metallicRoughness.png"
    },
    {
      "uri": "textures/WellBottom_normal.png"
    },
    {
      "uri": "textures/Ropes_baseColor.jpeg"
    },
    {
      "uri": "textures/Ropes_metallicRoughness.png"
    },
    {
      "uri": "textures/Ropes_normal.png"
    },
    {
      "uri": "textures/Leaf_baseColor.png"
    },
    {
      "uri": "textures/Leaf_metallicRoughness.png"
    },
    {
      "uri": "textures/Leaf_normal.png"
    },
    {
      "uri": "textures/Standardmaterial_baseColor.jpeg"
    },
    {
      "uri": "textures/Standardmaterial_metallicRoughness.png"
    },
    {
      "uri": "textures/Standardmaterial_normal.png"
    },
    {
      "uri": "textures/flower_baseColor.jpeg"
    },
    {
      "uri": "textures/flower_metallicRoughness.png"
    },
    {
      "uri": "textures/flower_normal.png"
    }
  ],
  "materials": [
    {
      "doubleSided": true,
      "name": "WellTop",
      "normalTexture": {
        "index": 2
      },
      "occlusionTexture": {
        "index": 1
      },
      "pbrMetallicRoughness": {
        "baseColorTexture": {
          "index": 0
        },
        "metallicRoughnessTexture": {
          "index": 1
        }
      }
    },
    {
      "doubleSided": true,
      "name": "WellBottom",
      "normalTexture": {
        "index": 5
      },
      "occlusionTexture": {
        "index": 4
      },
      "pbrMetallicRoughness": {
        "baseColorTexture": {
          "index": 3
        },
        "metallicRoughnessTexture": {
          "index": 4
        }
      }
    },
    {
      "doubleSided": true,
      "name": "Ropes",
      "normalTexture": {
        "index": 8
      },
      "occlusionTexture": {
        "index": 7
      },
      "pbrMetallicRoughness": {
        "baseColorTexture": {
          "index": 6
        },
        "metallicRoughnessTexture": {
          "index": 7
        }
      }
    },
    {
      "alphaMode": "BLEND",
      "doubleSided": true,
      "name": "Leaf",
      "normalTexture": {
        "index": 11
      },
      "pbrMetallicRoughness": {
        "baseColorTexture": {
          "index": 9
        },
        "metallicRoughnessTexture": {
          "index": 10
        }
      }
    },
    {
      "doubleSided": true,
      "name": "Standardmaterial",
      "normalTexture": {
        "index": 14
      },
      "pbrMetallicRoughness": {
        "baseColorTexture": {
          "index": 12
        },
        "metallicRoughnessTexture": {
          "index": 13
        }
      }
    },
    {
      "doubleSided": true,
      "name": "flower",
      "normalTexture": {
        "index": 17
      },
      "pbrMetallicRoughness": {
        "baseColorTexture": {
          "index": 15
        },
        "metallicRoughnessTexture": {
          "index": 16
        }
      }
    }
  ],
  "meshes": [
    {
      "name": "defaultMaterial",
      "primitives": [
        {
          "attributes": {
            "NORMAL": 1,
            "POSITION": 0,
            "TANGENT": 2,
            "TEXCOORD_0": 3
          },
          "indices": 4,
          "material": 5,
          "mode": 4
        }
      ]
    },
    {
      "name": "defaultMaterial",
      "primitives": [
        {
          "attributes": {
            "NORMAL": 6,
            "POSITION": 5,
            "TANGENT": 7,
            "TEXCOORD_0": 8,
            "TEXCOORD_1": 9,
            "TEXCOORD_2": 10
          },
          "indices": 11,
          "material": 3,
          "mode": 4
        }
      ]
    },
    {
      "name": "defaultMaterial",
      "primitives": [
        {
          "attributes": {
            "NORMAL": 13,
            "POSITION": 12,
            "TANGENT": 14,
            "TEXCOORD_0": 15
          },
          "indices": 16,
          "material": 4,
          "mode": 4
        }
      ]
    },
    {
      "name": "defaultMaterial",
      "primitives": [
        {
          "attributes": {
            "NORMAL": 18,
            "POSITION": 17,
            "TANGENT": 19,
            "TEXCOORD_0": 20
          },
          "indices": 21,
          "material": 0,
          "mode": 4
        }
      ]
    },
    {
      "name": "defaultMaterial",
      "primitives": [
        {
          "attributes": {
            "NORMAL": 23,
            "POSITION": 22,
            "TANGENT": 24,
            "TEXCOORD_0": 25
          },
          "indices": 26,
          "material": 1,
          "mode": 4
        }
      ]
    },
    {
      "name": "defaultMaterial",
      "primitives": [
        {
          "attributes": {
            "NORMAL": 28,
            "POSITION": 27,
            "TANGENT": 29,
            "TEXCOORD_0": 30
          },
          "indices": 31,
          "material": 2,
          "mode": 4
        }
      ]
    }
  ],
  "nodes": [
    {
      "children": [
        1
      ],
      "matrix": [
        1.0,
        0.0,
        0.0,
        0.0,
        0.0,
        2.220446049250313e-16,
        -1.0,
        0.0,
        0.0,
        1.0,
        2.220446049250313e-16,
        0.0,
        0.0,
        0.0,
        0.0,
        1.0
      ],
      "name": "Sketchfab_model"
    },
    {
      "children": [
        2,
        4,
        9
      ],
      "matrix": [
        1.0,
        0.0,
        0.0,
        0.0,
        0.0,
        -4.371139006309477e-08,
        0.999999999999999,
        0.0,
        0.0,
        -0.999999999999999,
        -4.371139006309477e-08,
        0.0,
        0.0,
        0.0,
        0.0,
        1.0
      ],
      "name": "Collada visual scene group"
    },
    {
      "children": [
        3
      ],
      "matrix": [
        0.002369,
        -0.00887,
        0.002353,
        0.0,
        -0.00834,
        -0.001066,
        0.004375,
        0.0,
        -0.003829,
        -0.003164,
        -0.008072,
        0.0,
        414.140137,
        602.185669,
        93.279991,
        1.0
      ],
      "name": "flower015"
    },
    {
      "mesh": 0,
      "name": "defaultMaterial"
    },
    {
      "children": [
        5,
        7
      ],
      "matrix": [
        1.0,
        0.0,
        0.0,
        0.0,
        0.0,
        0.0,
        -1.0,
        0.0,
        0.0,
        1.0,
        0.0,
        0.0,
        438.173523,
        21.005501,
        90.481842,
        1.0
      ],
      "name": "ivyBranch001_pivot"
    },
    {
      "children": [
        6
      ],
      "matrix": [
        1.0,
        0.0,
        0.0,
        0.0,
        0.0,
        1.0,
        0.0,
        0.0,
        0.0,
        0.0,
        1.0,
        0.0,
        -19.688812,
        -22.364578,
        -7.991341,
        1.0
      ],
      "name": "ivyLeaves001"
    },
    {
      "mesh": 1,
      "name": "defaultMaterial"
    },
    {
      "children": [
        8
      ],
      "matrix": [
        1.0,
        0.0,
        0.0,
        0.0,
        0.0,
        1.0,
        0.0,
        0.0,
        0.0,
        0.0,
        1.0,
        0.0,
        -19.688812,
        -22.364578,
        -7.991341,
        1.0
      ],
      "name": "ivyBranch001"
    },
    {
      "mesh": 2,
      "name": "defaultMaterial"
    },
    {
      "children": [
        10,
        11,
        12
      ],
      "matrix": [
        1.0,
        0.0,
        0.0,
        0.0,
        0.0,
        1.0,
        0.0,
        0.0,
        0.0,
        0.0,
        1.0,
        0.0,
        611.996582,
        1e-06,
        118.565186,
        1.0
      ],
      "name": "WishingWell_mesh"
    },
    {
      "mesh": 3,
      "name": "defaultMaterial"
    },
    {
      "mesh": 4,
      "name": "defaultMaterial"
    },
    {
      "mesh": 5,
      "name": "defaultMaterial"
    }
  ],
  "samplers": [
    {
      "magFilter": 9729,
      "minFilter": 9987,
      "wrapS": 10497,
      "wrapT": 10497
    }
  ],
  "scene": 0,
  "scenes": [
    {
      "name": "Sketchfab_Scene",
      "nodes": [
        0
      ]
    }
  ],
  "textures": [
    {
      "sampler": 0,
      "source": 0
    },
    {
      "sampler": 0,
      "source": 1
    },
    {
      "sampler": 0,
      "source": 2
    },
    {
      "sampler": 0,
      "source": 3
    },
    {
      "sampler": 0,
      "source": 4
    },
    {
      "sampler": 0,
      "source": 5
    },
    {
      "sampler": 0,
      "source": 6
    },
    {
      "sampler": 0,
      "source": 7
    },
    {
      "sampler": 0,
      "source": 8
    },
    {
      "sampler": 0,
      "source": 9
    },
    {
      "sampler": 0,
      "source": 10
    },
    {
      "sampler": 0,
      "source": 11
    },
    {
      "sampler": 0,
      "source": 12
    },
    {
      "sampler": 0,
      "source": 13
    },
    {
      "sampler": 0,
      "source": 14
    },
    {
      "sampler": 0,
      "source": 15
    },
    {
      "sampler": 0,
      "source": 16
    },
    {
      "sampler": 0,
      "source": 17
    }
  ]
}
